<?xml version="1.0" standalone="no"?>
<!-- Creator: fig2dev Version 3.2.7a -->
<!-- CreationDate: 2025-10-08 12:02:04 -->
<!-- Magnification: 1.05 -->
<svg	xmlns="http://www.w3.org/2000/svg"
	xmlns:xlink="http://www.w3.org/1999/xlink"
	width="1684pt" height="834pt"
	viewBox="-12 -12 26724 13239">
<g fill="none">
<!-- Line -->
<polyline points=" 0,0"
	stroke="#ffffff" stroke-width="8px"/>
<!-- Line -->
<polyline points=" 26700,13215"
	stroke="#ffffff" stroke-width="8px"/>
<!-- Line -->
<polyline points=" 3288,5295 3288,5205"
	stroke="#ffe560" stroke-width="8px" stroke-linecap="round"/>
<!-- Line -->
<polyline points=" 3288,5205 3378,5205"
	stroke="#ffe560" stroke-width="8px" stroke-linecap="round"/>
<!-- Line -->
<polyline points=" 3378,5205 3378,5295"
	stroke="#ffe560" stroke-width="8px" stroke-linecap="round"/>
<!-- Line -->
<polyline points=" 3378,5295 3288,5295"
	stroke="#ffe560" stroke-width="8px" stroke-linecap="round"/>
<!-- Line -->
<polygon points=" 3288,5205 3378,5205 3378,5295 3288,5295" fill="#ffe560"
	stroke="#ffe560" stroke-width="8px"/>
<!-- Line -->
<polyline points=" 15721,5445 10246,5445"
	stroke="#ffe560" stroke-width="8px" stroke-linecap="round"/>
<!-- Line -->
<polyline points=" 10246,5445 10246,5835"
	stroke="#ffe560" stroke-width="8px" stroke-linecap="round"/>
<!-- Line -->
<polyline points=" 10246,5835 10613,5835"
	stroke="#ffe560" stroke-width="8px" stroke-linecap="round"/>
<!-- Line -->
<polyline points=" 10613,5835 15721,5445"
	stroke="#ffe560" stroke-width="8px" stroke-linecap="round"/>
<!-- Line -->
<polygon points=" 10246,5445 10246,5835 10613,5835 15721,5445" fill="#fff9df"
	stroke="#ffe560" stroke-width="8px"/>
<!-- Line -->
<polyline points=" 12150,6030 9413,6030"
	stroke="#ffe560" stroke-width="8px" stroke-linecap="round"/>
<!-- Line -->
<polyline points=" 9413,6030 9413,6225"
	stroke="#ffe560" stroke-width="8px" stroke-linecap="round"/>
<!-- Line -->
<polyline points=" 9413,6225 10017,6225"
	stroke="#ffe560" stroke-width="8px" stroke-linecap="round"/>
<!-- Line -->
<polyline points=" 10017,6225 12150,6030"
	stroke="#ffe560" stroke-width="8px" stroke-linecap="round"/>
<!-- Line -->
<polygon points=" 9413,6030 9413,6225 10017,6225 12150,6030" fill="#fff9df"
	stroke="#ffe560" stroke-width="8px"/>
<!-- Line -->
<polyline points=" 22215,6420 13013,6420"
	stroke="#ffe560" stroke-width="8px" stroke-linecap="round"/>
<!-- Line -->
<polyline points=" 13013,6420 13013,6810"
	stroke="#ffe560" stroke-width="8px" stroke-linecap="round"/>
<!-- Line -->
<polyline points=" 13013,6810 13415,6810"
	stroke="#ffe560" stroke-width="8px" stroke-linecap="round"/>
<!-- Line -->
<polyline points=" 13415,6810 22215,6420"
	stroke="#ffe560" stroke-width="8px" stroke-linecap="round"/>
<!-- Line -->
<polygon points=" 13013,6420 13013,6810 13415,6810 22215,6420" fill="#fff9df"
	stroke="#ffe560" stroke-width="8px"/>
<!-- Line -->
<polyline points=" 22215,6420 13013,6420"
	stroke="#ffe560" stroke-width="8px" stroke-linecap="round"/>
<!-- Line -->
<polyline points=" 13013,6420 13013,6810"
	stroke="#ffe560" stroke-width="8px" stroke-linecap="round"/>
<!-- Line -->
<polyline points=" 13013,6810 13415,6810"
	stroke="#ffe560" stroke-width="8px" stroke-linecap="round"/>
<!-- Line -->
<polyline points=" 13415,6810 22215,6420"
	stroke="#ffe560" stroke-width="8px" stroke-linecap="round"/>
<!-- Line -->
<polygon points=" 13013,6420 13013,6810 13415,6810 22215,6420"
	stroke="#ffe560" stroke-width="8px"/>
<!-- Line -->
<polyline points=" 11436,7050 11436,6960"
	stroke="#ffe560" stroke-width="8px" stroke-linecap="round"/>
<!-- Line -->
<polyline points=" 11436,6960 11526,6960"
	stroke="#ffe560" stroke-width="8px" stroke-linecap="round"/>
<!-- Line -->
<polyline points=" 11526,6960 11526,7050"
	stroke="#ffe560" stroke-width="8px" stroke-linecap="round"/>
<!-- Line -->
<polyline points=" 11526,7050 11436,7050"
	stroke="#ffe560" stroke-width="8px" stroke-linecap="round"/>
<!-- Line -->
<polygon points=" 11436,6960 11526,6960 11526,7050 11436,7050" fill="#ffe560"
	stroke="#ffe560" stroke-width="8px"/>
<!-- Line -->
<polyline points=" 9911,6615 13013,6615"
	stroke="#ffe560" stroke-width="8px" stroke-linecap="round"/>
<!-- Line -->
<polyline points=" 9911,6908 9911,6615"
	stroke="#ffe560" stroke-width="8px" stroke-linecap="round"/>
<!-- Line -->
<polyline points=" 9911,7005 11481,7005"
	stroke="#ffe560" stroke-width="8px" stroke-linecap="round"/>
<!-- Line -->
<polyline points=" 9911,6908 9911,7005"
	stroke="#ffe560" stroke-width="8px" stroke-linecap="round"/>
<!-- Line -->
<polyline points=" 11832,7245 11832,7155"
	stroke="#ffe560" stroke-width="8px" stroke-linecap="round"/>
<!-- Line -->
<polyline points=" 11832,7155 11922,7155"
	stroke="#ffe560" stroke-width="8px" stroke-linecap="round"/>
<!-- Line -->
<polyline points=" 11922,7155 11922,7245"
	stroke="#ffe560" stroke-width="8px" stroke-linecap="round"/>
<!-- Line -->
<polyline points=" 11922,7245 11832,7245"
	stroke="#ffe560" stroke-width="8px" stroke-linecap="round"/>
<!-- Line -->
<polygon points=" 11832,7155 11922,7155 11922,7245 11832,7245" fill="#ffe560"
	stroke="#ffe560" stroke-width="8px"/>
<!-- Line -->
<polyline points=" 11430,7440 11430,7350"
	stroke="#ffe560" stroke-width="8px" stroke-linecap="round"/>
<!-- Line -->
<polyline points=" 11430,7350 11520,7350"
	stroke="#ffe560" stroke-width="8px" stroke-linecap="round"/>
<!-- Line -->
<polyline points=" 11520,7350 11520,7440"
	stroke="#ffe560" stroke-width="8px" stroke-linecap="round"/>
<!-- Line -->
<polyline points=" 11520,7440 11430,7440"
	stroke="#ffe560" stroke-width="8px" stroke-linecap="round"/>
<!-- Line -->
<polygon points=" 11430,7350 11520,7350 11520,7440 11430,7440" fill="#ffe560"
	stroke="#ffe560" stroke-width="8px"/>
<!-- Line -->
<polyline points=" 10445,7200 11877,7200"
	stroke="#ffe560" stroke-width="8px" stroke-linecap="round"/>
<!-- Line -->
<polyline points=" 10445,7298 10445,7200"
	stroke="#ffe560" stroke-width="8px" stroke-linecap="round"/>
<!-- Line -->
<polyline points=" 10445,7395 11475,7395"
	stroke="#ffe560" stroke-width="8px" stroke-linecap="round"/>
<!-- Line -->
<polyline points=" 10445,7298 10445,7395"
	stroke="#ffe560" stroke-width="8px" stroke-linecap="round"/>
<!-- Line -->
<polyline points=" 9911,6908"
	stroke="#ffe560" stroke-width="8px" stroke-linecap="round"/>
<!-- Line -->
<polyline points=" 9911,7103 9911,6908"
	stroke="#ffe560" stroke-width="8px" stroke-linecap="round"/>
<!-- Line -->
<polyline points=" 9911,7298 10445,7298"
	stroke="#ffe560" stroke-width="8px" stroke-linecap="round"/>
<!-- Line -->
<polyline points=" 9911,7103 9911,7298"
	stroke="#ffe560" stroke-width="8px" stroke-linecap="round"/>
<!-- Line -->
<polyline points=" 9413,6128"
	stroke="#ffe560" stroke-width="8px" stroke-linecap="round"/>
<!-- Line -->
<polyline points=" 9413,6323 9413,6128"
	stroke="#ffe560" stroke-width="8px" stroke-linecap="round"/>
<!-- Line -->
<polyline points=" 9413,7103 9911,7103"
	stroke="#ffe560" stroke-width="8px" stroke-linecap="round"/>
<!-- Line -->
<polyline points=" 9413,6323 9413,7103"
	stroke="#ffe560" stroke-width="8px" stroke-linecap="round"/>
<!-- Line -->
<polyline points=" 9147,7635 9147,7545"
	stroke="#ffe560" stroke-width="8px" stroke-linecap="round"/>
<!-- Line -->
<polyline points=" 9147,7545 9237,7545"
	stroke="#ffe560" stroke-width="8px" stroke-linecap="round"/>
<!-- Line -->
<polyline points=" 9237,7545 9237,7635"
	stroke="#ffe560" stroke-width="8px" stroke-linecap="round"/>
<!-- Line -->
<polyline points=" 9237,7635 9147,7635"
	stroke="#ffe560" stroke-width="8px" stroke-linecap="round"/>
<!-- Line -->
<polygon points=" 9147,7545 9237,7545 9237,7635 9147,7635" fill="#ffe560"
	stroke="#ffe560" stroke-width="8px"/>
<!-- Line -->
<polyline points=" 8745,6323 9413,6323"
	stroke="#ffe560" stroke-width="8px" stroke-linecap="round"/>
<!-- Line -->
<polyline points=" 8745,7493 8745,6323"
	stroke="#ffe560" stroke-width="8px" stroke-linecap="round"/>
<!-- Line -->
<polyline points=" 8745,7590 9192,7590"
	stroke="#ffe560" stroke-width="8px" stroke-linecap="round"/>
<!-- Line -->
<polyline points=" 8745,7493 8745,7590"
	stroke="#ffe560" stroke-width="8px" stroke-linecap="round"/>
<!-- Line -->
<polyline points=" 8745,5640 10246,5640"
	stroke="#ffe560" stroke-width="8px" stroke-linecap="round"/>
<!-- Line -->
<polyline points=" 8745,5933 8745,5640"
	stroke="#ffe560" stroke-width="8px" stroke-linecap="round"/>
<!-- Line -->
<polyline points=" 8745,7493"
	stroke="#ffe560" stroke-width="8px" stroke-linecap="round"/>
<!-- Line -->
<polyline points=" 8745,5933 8745,7493"
	stroke="#ffe560" stroke-width="8px" stroke-linecap="round"/>
<!-- Line -->
<polyline points=" 8468,7830 8468,7740"
	stroke="#ffe560" stroke-width="8px" stroke-linecap="round"/>
<!-- Line -->
<polyline points=" 8468,7740 8558,7740"
	stroke="#ffe560" stroke-width="8px" stroke-linecap="round"/>
<!-- Line -->
<polyline points=" 8558,7740 8558,7830"
	stroke="#ffe560" stroke-width="8px" stroke-linecap="round"/>
<!-- Line -->
<polyline points=" 8558,7830 8468,7830"
	stroke="#ffe560" stroke-width="8px" stroke-linecap="round"/>
<!-- Line -->
<polygon points=" 8468,7740 8558,7740 8558,7830 8468,7830" fill="#ffe560"
	stroke="#ffe560" stroke-width="8px"/>
<!-- Line -->
<polyline points=" 7462,5933 8745,5933"
	stroke="#ffe560" stroke-width="8px" stroke-linecap="round"/>
<!-- Line -->
<polyline points=" 7462,7688 7462,5933"
	stroke="#ffe560" stroke-width="8px" stroke-linecap="round"/>
<!-- Line -->
<polyline points=" 7462,7785 8513,7785"
	stroke="#ffe560" stroke-width="8px" stroke-linecap="round"/>
<!-- Line -->
<polyline points=" 7462,7688 7462,7785"
	stroke="#ffe560" stroke-width="8px" stroke-linecap="round"/>
<!-- Line -->
<polyline points=" 8670,8025 8670,7935"
	stroke="#ffe560" stroke-width="8px" stroke-linecap="round"/>
<!-- Line -->
<polyline points=" 8670,7935 8760,7935"
	stroke="#ffe560" stroke-width="8px" stroke-linecap="round"/>
<!-- Line -->
<polyline points=" 8760,7935 8760,8025"
	stroke="#ffe560" stroke-width="8px" stroke-linecap="round"/>
<!-- Line -->
<polyline points=" 8760,8025 8670,8025"
	stroke="#ffe560" stroke-width="8px" stroke-linecap="round"/>
<!-- Line -->
<polygon points=" 8670,7935 8760,7935 8760,8025 8670,8025" fill="#ffe560"
	stroke="#ffe560" stroke-width="8px"/>
<!-- Line -->
<polyline points=" 6630,7688 7462,7688"
	stroke="#ffe560" stroke-width="8px" stroke-linecap="round"/>
<!-- Line -->
<polyline points=" 6630,7883 6630,7688"
	stroke="#ffe560" stroke-width="8px" stroke-linecap="round"/>
<!-- Line -->
<polyline points=" 6630,7980 8715,7980"
	stroke="#ffe560" stroke-width="8px" stroke-linecap="round"/>
<!-- Line -->
<polyline points=" 6630,7883 6630,7980"
	stroke="#ffe560" stroke-width="8px" stroke-linecap="round"/>
<!-- Line -->
<polyline points=" 9491,8220 9491,8130"
	stroke="#ffe560" stroke-width="8px" stroke-linecap="round"/>
<!-- Line -->
<polyline points=" 9491,8130 9581,8130"
	stroke="#ffe560" stroke-width="8px" stroke-linecap="round"/>
<!-- Line -->
<polyline points=" 9581,8130 9581,8220"
	stroke="#ffe560" stroke-width="8px" stroke-linecap="round"/>
<!-- Line -->
<polyline points=" 9581,8220 9491,8220"
	stroke="#ffe560" stroke-width="8px" stroke-linecap="round"/>
<!-- Line -->
<polygon points=" 9491,8130 9581,8130 9581,8220 9491,8220" fill="#ffe560"
	stroke="#ffe560" stroke-width="8px"/>
<!-- Line -->
<polyline points=" 11356,8415 11356,8325"
	stroke="#ffe560" stroke-width="8px" stroke-linecap="round"/>
<!-- Line -->
<polyline points=" 11356,8325 11446,8325"
	stroke="#ffe560" stroke-width="8px" stroke-linecap="round"/>
<!-- Line -->
<polyline points=" 11446,8325 11446,8415"
	stroke="#ffe560" stroke-width="8px" stroke-linecap="round"/>
<!-- Line -->
<polyline points=" 11446,8415 11356,8415"
	stroke="#ffe560" stroke-width="8px" stroke-linecap="round"/>
<!-- Line -->
<polygon points=" 11356,8325 11446,8325 11446,8415 11356,8415" fill="#ffe560"
	stroke="#ffe560" stroke-width="8px"/>
<!-- Line -->
<polyline points=" 21072,8610 21072,8520"
	stroke="#ffe560" stroke-width="8px" stroke-linecap="round"/>
<!-- Line -->
<polyline points=" 21072,8520 21162,8520"
	stroke="#ffe560" stroke-width="8px" stroke-linecap="round"/>
<!-- Line -->
<polyline points=" 21162,8520 21162,8610"
	stroke="#ffe560" stroke-width="8px" stroke-linecap="round"/>
<!-- Line -->
<polyline points=" 21162,8610 21072,8610"
	stroke="#ffe560" stroke-width="8px" stroke-linecap="round"/>
<!-- Line -->
<polygon points=" 21072,8520 21162,8520 21162,8610 21072,8610" fill="#ffe560"
	stroke="#ffe560" stroke-width="8px"/>
<!-- Line -->
<polyline points=" 11379,8370 11401,8370"
	stroke="#ffe560" stroke-width="8px" stroke-linecap="round"/>
<!-- Line -->
<polyline points=" 11379,8468 11379,8370"
	stroke="#ffe560" stroke-width="8px" stroke-linecap="round"/>
<!-- Line -->
<polyline points=" 11379,8565 21117,8565"
	stroke="#ffe560" stroke-width="8px" stroke-linecap="round"/>
<!-- Line -->
<polyline points=" 11379,8468 11379,8565"
	stroke="#ffe560" stroke-width="8px" stroke-linecap="round"/>
<!-- Line -->
<polyline points=" 11689,8805 11689,8715"
	stroke="#ffe560" stroke-width="8px" stroke-linecap="round"/>
<!-- Line -->
<polyline points=" 11689,8715 11779,8715"
	stroke="#ffe560" stroke-width="8px" stroke-linecap="round"/>
<!-- Line -->
<polyline points=" 11779,8715 11779,8805"
	stroke="#ffe560" stroke-width="8px" stroke-linecap="round"/>
<!-- Line -->
<polyline points=" 11779,8805 11689,8805"
	stroke="#ffe560" stroke-width="8px" stroke-linecap="round"/>
<!-- Line -->
<polygon points=" 11689,8715 11779,8715 11779,8805 11689,8805" fill="#ffe560"
	stroke="#ffe560" stroke-width="8px"/>
<!-- Line -->
<polyline points=" 11379,8468"
	stroke="#ffe560" stroke-width="8px" stroke-linecap="round"/>
<!-- Line -->
<polyline points=" 11379,8663 11379,8468"
	stroke="#ffe560" stroke-width="8px" stroke-linecap="round"/>
<!-- Line -->
<polyline points=" 11379,8760 11734,8760"
	stroke="#ffe560" stroke-width="8px" stroke-linecap="round"/>
<!-- Line -->
<polyline points=" 11379,8663 11379,8760"
	stroke="#ffe560" stroke-width="8px" stroke-linecap="round"/>
<!-- Line -->
<polyline points=" 11350,9000 11350,8910"
	stroke="#ffe560" stroke-width="8px" stroke-linecap="round"/>
<!-- Line -->
<polyline points=" 11350,8910 11440,8910"
	stroke="#ffe560" stroke-width="8px" stroke-linecap="round"/>
<!-- Line -->
<polyline points=" 11440,8910 11440,9000"
	stroke="#ffe560" stroke-width="8px" stroke-linecap="round"/>
<!-- Line -->
<polyline points=" 11440,9000 11350,9000"
	stroke="#ffe560" stroke-width="8px" stroke-linecap="round"/>
<!-- Line -->
<polygon points=" 11350,8910 11440,8910 11440,9000 11350,9000" fill="#ffe560"
	stroke="#ffe560" stroke-width="8px"/>
<!-- Line -->
<polyline points=" 11379,8663"
	stroke="#ffe560" stroke-width="8px" stroke-linecap="round"/>
<!-- Line -->
<polyline points=" 11379,8858 11379,8663"
	stroke="#ffe560" stroke-width="8px" stroke-linecap="round"/>
<!-- Line -->
<polyline points=" 11379,8955 11395,8955"
	stroke="#ffe560" stroke-width="8px" stroke-linecap="round"/>
<!-- Line -->
<polyline points=" 11379,8858 11379,8955"
	stroke="#ffe560" stroke-width="8px" stroke-linecap="round"/>
<!-- Line -->
<polyline points=" 8406,8175 9536,8175"
	stroke="#ffe560" stroke-width="8px" stroke-linecap="round"/>
<!-- Line -->
<polyline points=" 8406,8273 8406,8175"
	stroke="#ffe560" stroke-width="8px" stroke-linecap="round"/>
<!-- Line -->
<polyline points=" 8406,8858 11379,8858"
	stroke="#ffe560" stroke-width="8px" stroke-linecap="round"/>
<!-- Line -->
<polyline points=" 8406,8273 8406,8858"
	stroke="#ffe560" stroke-width="8px" stroke-linecap="round"/>
<!-- Line -->
<polyline points=" 4178,7883 6630,7883"
	stroke="#ffe560" stroke-width="8px" stroke-linecap="round"/>
<!-- Line -->
<polyline points=" 4178,8078 4178,7883"
	stroke="#ffe560" stroke-width="8px" stroke-linecap="round"/>
<!-- Line -->
<polyline points=" 4178,8273 8406,8273"
	stroke="#ffe560" stroke-width="8px" stroke-linecap="round"/>
<!-- Line -->
<polyline points=" 4178,8078 4178,8273"
	stroke="#ffe560" stroke-width="8px" stroke-linecap="round"/>
<!-- Line -->
<polyline points=" 13052,9195 13052,9105"
	stroke="#ffe560" stroke-width="8px" stroke-linecap="round"/>
<!-- Line -->
<polyline points=" 13052,9105 13142,9105"
	stroke="#ffe560" stroke-width="8px" stroke-linecap="round"/>
<!-- Line -->
<polyline points=" 13142,9105 13142,9195"
	stroke="#ffe560" stroke-width="8px" stroke-linecap="round"/>
<!-- Line -->
<polyline points=" 13142,9195 13052,9195"
	stroke="#ffe560" stroke-width="8px" stroke-linecap="round"/>
<!-- Line -->
<polygon points=" 13052,9105 13142,9105 13142,9195 13052,9195" fill="#ffe560"
	stroke="#ffe560" stroke-width="8px"/>
<!-- Line -->
<polyline points=" 9250,9390 9250,9300"
	stroke="#ffe560" stroke-width="8px" stroke-linecap="round"/>
<!-- Line -->
<polyline points=" 9250,9300 9340,9300"
	stroke="#ffe560" stroke-width="8px" stroke-linecap="round"/>
<!-- Line -->
<polyline points=" 9340,9300 9340,9390"
	stroke="#ffe560" stroke-width="8px" stroke-linecap="round"/>
<!-- Line -->
<polyline points=" 9340,9390 9250,9390"
	stroke="#ffe560" stroke-width="8px" stroke-linecap="round"/>
<!-- Line -->
<polygon points=" 9250,9300 9340,9300 9340,9390 9250,9390" fill="#ffe560"
	stroke="#ffe560" stroke-width="8px"/>
<!-- Line -->
<polyline points=" 8132,9150 13097,9150"
	stroke="#ffe560" stroke-width="8px" stroke-linecap="round"/>
<!-- Line -->
<polyline points=" 8132,9248 8132,9150"
	stroke="#ffe560" stroke-width="8px" stroke-linecap="round"/>
<!-- Line -->
<polyline points=" 8132,9345 9295,9345"
	stroke="#ffe560" stroke-width="8px" stroke-linecap="round"/>
<!-- Line -->
<polyline points=" 8132,9248 8132,9345"
	stroke="#ffe560" stroke-width="8px" stroke-linecap="round"/>
<!-- Line -->
<polyline points=" 7149,9585 7149,9495"
	stroke="#ffe560" stroke-width="8px" stroke-linecap="round"/>
<!-- Line -->
<polyline points=" 7149,9495 7239,9495"
	stroke="#ffe560" stroke-width="8px" stroke-linecap="round"/>
<!-- Line -->
<polyline points=" 7239,9495 7239,9585"
	stroke="#ffe560" stroke-width="8px" stroke-linecap="round"/>
<!-- Line -->
<polyline points=" 7239,9585 7149,9585"
	stroke="#ffe560" stroke-width="8px" stroke-linecap="round"/>
<!-- Line -->
<polygon points=" 7149,9495 7239,9495 7239,9585 7149,9585" fill="#ffe560"
	stroke="#ffe560" stroke-width="8px"/>
<!-- Line -->
<polyline points=" 4178,9248 8132,9248"
	stroke="#ffe560" stroke-width="8px" stroke-linecap="round"/>
<!-- Line -->
<polyline points=" 4178,9443 4178,9248"
	stroke="#ffe560" stroke-width="8px" stroke-linecap="round"/>
<!-- Line -->
<polyline points=" 4178,9540 7194,9540"
	stroke="#ffe560" stroke-width="8px" stroke-linecap="round"/>
<!-- Line -->
<polyline points=" 4178,9443 4178,9540"
	stroke="#ffe560" stroke-width="8px" stroke-linecap="round"/>
<!-- Line -->
<polyline points=" 7372,9780 7372,9690"
	stroke="#ffe560" stroke-width="8px" stroke-linecap="round"/>
<!-- Line -->
<polyline points=" 7372,9690 7462,9690"
	stroke="#ffe560" stroke-width="8px" stroke-linecap="round"/>
<!-- Line -->
<polyline points=" 7462,9690 7462,9780"
	stroke="#ffe560" stroke-width="8px" stroke-linecap="round"/>
<!-- Line -->
<polyline points=" 7462,9780 7372,9780"
	stroke="#ffe560" stroke-width="8px" stroke-linecap="round"/>
<!-- Line -->
<polygon points=" 7372,9690 7462,9690 7462,9780 7372,9780" fill="#ffe560"
	stroke="#ffe560" stroke-width="8px"/>
<!-- Line -->
<polyline points=" 6067,9975 6067,9885"
	stroke="#ffe560" stroke-width="8px" stroke-linecap="round"/>
<!-- Line -->
<polyline points=" 6067,9885 6157,9885"
	stroke="#ffe560" stroke-width="8px" stroke-linecap="round"/>
<!-- Line -->
<polyline points=" 6157,9885 6157,9975"
	stroke="#ffe560" stroke-width="8px" stroke-linecap="round"/>
<!-- Line -->
<polyline points=" 6157,9975 6067,9975"
	stroke="#ffe560" stroke-width="8px" stroke-linecap="round"/>
<!-- Line -->
<polygon points=" 6067,9885 6157,9885 6157,9975 6067,9975" fill="#ffe560"
	stroke="#ffe560" stroke-width="8px"/>
<!-- Line -->
<polyline points=" 5171,9735 7417,9735"
	stroke="#ffe560" stroke-width="8px" stroke-linecap="round"/>
<!-- Line -->
<polyline points=" 5171,9833 5171,9735"
	stroke="#ffe560" stroke-width="8px" stroke-linecap="round"/>
<!-- Line -->
<polyline points=" 5171,9930 6112,9930"
	stroke="#ffe560" stroke-width="8px" stroke-linecap="round"/>
<!-- Line -->
<polyline points=" 5171,9833 5171,9930"
	stroke="#ffe560" stroke-width="8px" stroke-linecap="round"/>
<!-- Line -->
<polyline points=" 4178,9443"
	stroke="#ffe560" stroke-width="8px" stroke-linecap="round"/>
<!-- Line -->
<polyline points=" 4178,9638 4178,9443"
	stroke="#ffe560" stroke-width="8px" stroke-linecap="round"/>
<!-- Line -->
<polyline points=" 4178,9833 5171,9833"
	stroke="#ffe560" stroke-width="8px" stroke-linecap="round"/>
<!-- Line -->
<polyline points=" 4178,9638 4178,9833"
	stroke="#ffe560" stroke-width="8px" stroke-linecap="round"/>
<!-- Line -->
<polyline points=" 5952,10170 5952,10080"
	stroke="#ffe560" stroke-width="8px" stroke-linecap="round"/>
<!-- Line -->
<polyline points=" 5952,10080 6042,10080"
	stroke="#ffe560" stroke-width="8px" stroke-linecap="round"/>
<!-- Line -->
<polyline points=" 6042,10080 6042,10170"
	stroke="#ffe560" stroke-width="8px" stroke-linecap="round"/>
<!-- Line -->
<polyline points=" 6042,10170 5952,10170"
	stroke="#ffe560" stroke-width="8px" stroke-linecap="round"/>
<!-- Line -->
<polygon points=" 5952,10080 6042,10080 6042,10170 5952,10170" fill="#ffe560"
	stroke="#ffe560" stroke-width="8px"/>
<!-- Line -->
<polyline points=" 4178,9638"
	stroke="#ffe560" stroke-width="8px" stroke-linecap="round"/>
<!-- Line -->
<polyline points=" 4178,10028 4178,9638"
	stroke="#ffe560" stroke-width="8px" stroke-linecap="round"/>
<!-- Line -->
<polyline points=" 4178,10125 5997,10125"
	stroke="#ffe560" stroke-width="8px" stroke-linecap="round"/>
<!-- Line -->
<polyline points=" 4178,10028 4178,10125"
	stroke="#ffe560" stroke-width="8px" stroke-linecap="round"/>
<!-- Line -->
<polyline points=" 4178,8078"
	stroke="#ffe560" stroke-width="8px" stroke-linecap="round"/>
<!-- Line -->
<polyline points=" 4178,9053 4178,8078"
	stroke="#ffe560" stroke-width="8px" stroke-linecap="round"/>
<!-- Line -->
<polyline points=" 4178,10028"
	stroke="#ffe560" stroke-width="8px" stroke-linecap="round"/>
<!-- Line -->
<polyline points=" 4178,9053 4178,10028"
	stroke="#ffe560" stroke-width="8px" stroke-linecap="round"/>
<!-- Line -->
<polyline points=" 6060,10365 6060,10275"
	stroke="#ffe560" stroke-width="8px" stroke-linecap="round"/>
<!-- Line -->
<polyline points=" 6060,10275 6150,10275"
	stroke="#ffe560" stroke-width="8px" stroke-linecap="round"/>
<!-- Line -->
<polyline points=" 6150,10275 6150,10365"
	stroke="#ffe560" stroke-width="8px" stroke-linecap="round"/>
<!-- Line -->
<polyline points=" 6150,10365 6060,10365"
	stroke="#ffe560" stroke-width="8px" stroke-linecap="round"/>
<!-- Line -->
<polygon points=" 6060,10275 6150,10275 6150,10365 6060,10365" fill="#ffe560"
	stroke="#ffe560" stroke-width="8px"/>
<!-- Line -->
<polyline points=" 3333,9053 4178,9053"
	stroke="#ffe560" stroke-width="8px" stroke-linecap="round"/>
<!-- Line -->
<polyline points=" 3333,10223 3333,9053"
	stroke="#ffe560" stroke-width="8px" stroke-linecap="round"/>
<!-- Line -->
<polyline points=" 3333,10320 6105,10320"
	stroke="#ffe560" stroke-width="8px" stroke-linecap="round"/>
<!-- Line -->
<polyline points=" 3333,10223 3333,10320"
	stroke="#ffe560" stroke-width="8px" stroke-linecap="round"/>
<!-- Line -->
<polyline points=" 8756,10560 8756,10470"
	stroke="#ffe560" stroke-width="8px" stroke-linecap="round"/>
<!-- Line -->
<polyline points=" 8756,10470 8846,10470"
	stroke="#ffe560" stroke-width="8px" stroke-linecap="round"/>
<!-- Line -->
<polyline points=" 8846,10470 8846,10560"
	stroke="#ffe560" stroke-width="8px" stroke-linecap="round"/>
<!-- Line -->
<polyline points=" 8846,10560 8756,10560"
	stroke="#ffe560" stroke-width="8px" stroke-linecap="round"/>
<!-- Line -->
<polygon points=" 8756,10470 8846,10470 8846,10560 8756,10560" fill="#ffe560"
	stroke="#ffe560" stroke-width="8px"/>
<!-- Line -->
<polyline points=" 3333,10223"
	stroke="#ffe560" stroke-width="8px" stroke-linecap="round"/>
<!-- Line -->
<polyline points=" 3333,10418 3333,10223"
	stroke="#ffe560" stroke-width="8px" stroke-linecap="round"/>
<!-- Line -->
<polyline points=" 3333,10515 8801,10515"
	stroke="#ffe560" stroke-width="8px" stroke-linecap="round"/>
<!-- Line -->
<polyline points=" 3333,10418 3333,10515"
	stroke="#ffe560" stroke-width="8px" stroke-linecap="round"/>
<!-- Line -->
<polyline points=" 150,5250 3333,5250"
	stroke="#ffe560" stroke-width="8px" stroke-linecap="round"/>
<!-- Line -->
<polyline points=" 150,5348 150,5250"
	stroke="#ffe560" stroke-width="8px" stroke-linecap="round"/>
<!-- Line -->
<polyline points=" 150,10418 3333,10418"
	stroke="#ffe560" stroke-width="8px" stroke-linecap="round"/>
<!-- Line -->
<polyline points=" 150,5348 150,10418"
	stroke="#ffe560" stroke-width="8px" stroke-linecap="round"/>
<!-- Line -->
<polyline points=" 150,11100 2981,11100"
	stroke="#ffffff" stroke-width="8px" stroke-linecap="round"/>
<!-- Text -->
<text xml:space="preserve" x="3435" y="5325" fill="#ffe560" font-family="Helvetica" font-style="normal" font-weight="normal" font-size="144" text-anchor="start">638109037, 638109037 Mo-nitrogenase iron , 638109037 Mo-nitroge</text>
<!-- Text -->
<text xml:space="preserve" x="12885" y="5803" fill="#ffe560" font-family="Helvetica" font-style="normal" font-weight="normal" font-size="144" text-anchor="start">Nostoc cluster I</text>
<!-- Text -->
<text xml:space="preserve" x="10335" y="5708" fill="#ffe560" font-family="Helvetica" font-style="normal" font-weight="normal" font-size="144" text-anchor="start">45</text>
<!-- Text -->
<text xml:space="preserve" x="11670" y="6218" fill="#ffe560" font-family="Helvetica" font-style="normal" font-weight="normal" font-size="144" text-anchor="start">Nostoc cluster II</text>
<!-- Text -->
<text xml:space="preserve" x="9510" y="6195" fill="#ffe560" font-family="Helvetica" font-style="normal" font-weight="normal" font-size="144" text-anchor="start">9</text>
<!-- Text -->
<text xml:space="preserve" x="17265" y="6778" fill="#ffffff" font-family="Helvetica" font-style="normal" font-weight="normal" font-size="144" text-anchor="start">nifH2 cluster</text>
<!-- Text -->
<text xml:space="preserve" x="13110" y="6683" fill="#ffffff" font-family="Helvetica" font-style="normal" font-weight="normal" font-size="144" text-anchor="start">30</text>
<!-- Text -->
<text xml:space="preserve" x="11580" y="7080" fill="#ffe560" font-family="Helvetica" font-style="normal" font-weight="normal" font-size="144" text-anchor="start">Zygodon_cyan, Zygodon_cyanobacteria_BC13_nif, Zygodon_cyanobacteri</text>
<!-- Text -->
<text xml:space="preserve" x="11970" y="7275" fill="#ffe560" font-family="Helvetica" font-style="normal" font-weight="normal" font-size="144" text-anchor="start">JF827724|JF8, JF827724, JF827724|JF827724.1 </text>
<!-- Text -->
<text xml:space="preserve" x="11565" y="7470" fill="#ffe560" font-family="Helvetica" font-style="normal" font-weight="normal" font-size="144" text-anchor="start">DQ531684|DQ5, DQ531684, DQ531684|DQ531684.1 </text>
<!-- Text -->
<text xml:space="preserve" x="10170" y="7478" fill="#3d8a99" font-family="Helvetica" font-style="normal" font-weight="normal" font-size="144" text-anchor="start">84%</text>
<!-- Text -->
<text xml:space="preserve" x="9645" y="7283" fill="#3d8a99" font-family="Helvetica" font-style="normal" font-weight="normal" font-size="144" text-anchor="start">85%</text>
<!-- Text -->
<text xml:space="preserve" x="9285" y="7665" fill="#ffe560" font-family="Helvetica" font-style="normal" font-weight="normal" font-size="144" text-anchor="start">LC716863.1, LC716863.1 Uncultured cyanobac, LC716863.1 Unculture</text>
<!-- Text -->
<text xml:space="preserve" x="9150" y="6308" fill="#3d8a99" font-family="Helvetica" font-style="normal" font-weight="normal" font-size="144" text-anchor="start">94%</text>
<!-- Text -->
<text xml:space="preserve" x="9975" y="5625" fill="#3d8a99" font-family="Helvetica" font-style="normal" font-weight="normal" font-size="144" text-anchor="start">97%</text>
<!-- Text -->
<text xml:space="preserve" x="8610" y="7860" fill="#ffe560" font-family="Helvetica" font-style="normal" font-weight="normal" font-size="144" text-anchor="start">JF827723|JF8, JF827723, JF827723|JF827723.1 </text>
<!-- Text -->
<text xml:space="preserve" x="8475" y="5918" fill="#3d8a99" font-family="Helvetica" font-style="normal" font-weight="normal" font-size="144" text-anchor="start">93%</text>
<!-- Text -->
<text xml:space="preserve" x="8805" y="8055" fill="#ffe560" font-family="Helvetica" font-style="normal" font-weight="normal" font-size="144" text-anchor="start">637231238, 637231238 Mo-nitrogenase iron , 637231238 Mo-nitroge</text>
<!-- Text -->
<text xml:space="preserve" x="7185" y="7673" fill="#3d8a99" font-family="Helvetica" font-style="normal" font-weight="normal" font-size="144" text-anchor="start">85%</text>
<!-- Text -->
<text xml:space="preserve" x="9630" y="8250" fill="#ffe560" font-family="Helvetica" font-style="normal" font-weight="normal" font-size="144" text-anchor="start">M63686|M6368, M63686, M63686|M63686.1 Anab</text>
<!-- Text -->
<text xml:space="preserve" x="11505" y="8445" fill="#ffe560" font-family="Helvetica" font-style="normal" font-weight="normal" font-size="144" text-anchor="start">FJ895145|FJ8, FJ895145, FJ895145|FJ895145.1 </text>
<!-- Text -->
<text xml:space="preserve" x="21210" y="8640" fill="#ffe560" font-family="Helvetica" font-style="normal" font-weight="normal" font-size="144" text-anchor="start">EF570567|EF5, EF570567, EF570567|EF570567.1 </text>
<!-- Text -->
<text xml:space="preserve" x="11835" y="8835" fill="#ffe560" font-family="Helvetica" font-style="normal" font-weight="normal" font-size="144" text-anchor="start">JF827744|JF8, JF827744, JF827744|JF827744.1 </text>
<!-- Text -->
<text xml:space="preserve" x="11490" y="9030" fill="#ffe560" font-family="Helvetica" font-style="normal" font-weight="normal" font-size="144" text-anchor="start">EU381369|EU3, EU381369, EU381369|EU381369.1 </text>
<!-- Text -->
<text xml:space="preserve" x="11115" y="9038" fill="#3d8a99" font-family="Helvetica" font-style="normal" font-weight="normal" font-size="144" text-anchor="start">99%</text>
<!-- Text -->
<text xml:space="preserve" x="6360" y="7868" fill="#3d8a99" font-family="Helvetica" font-style="normal" font-weight="normal" font-size="144" text-anchor="start">92%</text>
<!-- Text -->
<text xml:space="preserve" x="8130" y="8453" fill="#3d8a99" font-family="Helvetica" font-style="normal" font-weight="normal" font-size="144" text-anchor="start">98%</text>
<!-- Text -->
<text xml:space="preserve" x="13200" y="9225" fill="#ffe560" font-family="Helvetica" font-style="normal" font-weight="normal" font-size="144" text-anchor="start">U49514|U4951, U49514, U49514|U49514.1 Fisc</text>
<!-- Text -->
<text xml:space="preserve" x="9390" y="9420" fill="#ffe560" font-family="Helvetica" font-style="normal" font-weight="normal" font-size="144" text-anchor="start">DQ225763|DQ2, DQ225763, DQ225763|DQ225763.1 </text>
<!-- Text -->
<text xml:space="preserve" x="7290" y="9615" fill="#ffe560" font-family="Helvetica" font-style="normal" font-weight="normal" font-size="144" text-anchor="start">647107234, 647107234 Mo-nitrogenase iron , 647107234 Mo-nitroge</text>
<!-- Text -->
<text xml:space="preserve" x="7860" y="9233" fill="#3d8a99" font-family="Helvetica" font-style="normal" font-weight="normal" font-size="144" text-anchor="start">95%</text>
<!-- Text -->
<text xml:space="preserve" x="7515" y="9810" fill="#ffe560" font-family="Helvetica" font-style="normal" font-weight="normal" font-size="144" text-anchor="start">U89346|U8934, U89346, U89346|U89346.1 Anab</text>
<!-- Text -->
<text xml:space="preserve" x="6210" y="10005" fill="#ffe560" font-family="Helvetica" font-style="normal" font-weight="normal" font-size="144" text-anchor="start">637231821, 637231821 Mo-nitrogenase iron , 637231821 Mo-nitroge</text>
<!-- Text -->
<text xml:space="preserve" x="4905" y="10013" fill="#3d8a99" font-family="Helvetica" font-style="normal" font-weight="normal" font-size="144" text-anchor="start">86%</text>
<!-- Text -->
<text xml:space="preserve" x="6090" y="10200" fill="#ffe560" font-family="Helvetica" font-style="normal" font-weight="normal" font-size="144" text-anchor="start">JF827725|JF8, JF827725, JF827725|JF827725.1 </text>
<!-- Text -->
<text xml:space="preserve" x="6210" y="10395" fill="#ffe560" font-family="Helvetica" font-style="normal" font-weight="normal" font-size="144" text-anchor="start">AY221817|AY2, AY221817, AY221817|AY221817.1 </text>
<!-- Text -->
<text xml:space="preserve" x="3915" y="9038" fill="#3d8a99" font-family="Helvetica" font-style="normal" font-weight="normal" font-size="144" text-anchor="start">82%</text>
<!-- Text -->
<text xml:space="preserve" x="8895" y="10590" fill="#ffe560" font-family="Helvetica" font-style="normal" font-weight="normal" font-size="144" text-anchor="start">646569746, 646569746 Mo-nitrogenase iron , 646569746 Mo-nitroge</text>
<!-- Text -->
<text xml:space="preserve" x="1380" y="11100" fill="#ffffff" font-family="Helvetica" font-style="normal" font-weight="normal" font-size="144" text-anchor="start">0.10</text>
</g>
</svg>
